<svg xmlns="http://www.w3.org/2000/svg" height="24" viewBox="0 -960 960 960" width="24"><path d="M680.118-274Q706-274 724-292.118q18-18.117 18-44Q742-362 723.882-380q-18.117-18-44-18Q654-398 636-379.882q-18 18.117-18 44Q618-310 636.118-292q18.117 18 44 18Zm.066 120q32.201 0 58.508-13.808 26.308-13.807 43.693-37.807Q759-220 733-227q-26-7-53-7t-53 7q-26 7-49.385 21.385 17.385 24 43.877 37.807Q647.984-154 680.184-154ZM680-68.001q-86.542 0-147.271-60.728Q472.001-189.458 472.001-276q0-86.542 60.728-147.271Q593.458-483.999 680-483.999q86.542 0 147.271 60.728Q887.999-362.542 887.999-276q0 86.542-60.728 147.271Q766.542-68.001 680-68.001Zm-206 .23q-139.769-35.384-232.384-163.014Q149.001-358.415 149.001-516v-252.153L479-892.46l331.999 124.307v237.616q-27.385-16.923-62.5-25.192-35.115-8.27-68.499-8.27-119.522 0-203.76 84.239-84.239 84.238-84.239 203.76 0 54.615 21.692 109.73t66.461 96.191q-1.538.77-3.077 1.154-1.538.385-3.077 1.154Z"/></svg>